# xmcd
#
# Track frame offsets:
#	150
#	18490
#	38027
#	56197
#	74560
#	92050
#	122087
#
# Disc length: 1798 seconds
#
# Revision: 1
# Processed by: cddbd v1.4PL0 Copyright (c) Steve Scherf et al.
# Submitted via: audiograbber 1.82.01
#
DISCID=60070407
DTITLE=Wyclef Jean - The Preacher's Son (Album Advance)
DYEAR=2003
DGENRE=Hip-Hop
TTITLE0=Party To Damascus (Feat. Missy Elliot)
TTITLE1=Celebrate (Feat. Patti Labelle and Cassidy)
TTITLE2=Baby Daddy (Feat. Redman)
TTITLE3=Me and My Guitar (Three Nights In Rio) (Feat. Carlos Santana)
TTITLE4=Class Reunion (Azeria) (Feat. Monica and The Edge)
TTITLE5=Baby (Feat. Pink Cadillac)
TTITLE6=Data Track
EXTD=
EXTT0=
EXTT1=
EXTT2=
EXTT3=
EXTT4=
EXTT5=
EXTT6=
PLAYORDER=
